<svg width="4" height="22" viewBox="0 0 4 22" fill="none" xmlns="http://www.w3.org/2000/svg">
<path d="M4 1.83333C4 2.31956 3.78929 2.78588 3.41421 3.1297C3.03914 3.47351 2.53043 3.66667 2 3.66667C1.46957 3.66667 0.96086 3.47351 0.585787 3.1297C0.210714 2.78588 0 2.31956 0 1.83333C0 1.3471 0.210714 0.880788 0.585787 0.536971C0.96086 0.193154 1.46957 0 2 0C2.53043 0 3.03914 0.193154 3.41421 0.536971C3.78929 0.880788 4 1.3471 4 1.83333ZM4 11C4 11.4862 3.78929 11.9525 3.41421 12.2964C3.03914 12.6402 2.53043 12.8333 2 12.8333C1.46957 12.8333 0.96086 12.6402 0.585787 12.2964C0.210714 11.9525 0 11.4862 0 11C0 10.5138 0.210714 10.0475 0.585787 9.70364C0.96086 9.35982 1.46957 9.16667 2 9.16667C2.53043 9.16667 3.03914 9.35982 3.41421 9.70364C3.78929 10.0475 4 10.5138 4 11ZM4 20.1667C4 20.6529 3.78929 21.1192 3.41421 21.463C3.03914 21.8068 2.53043 22 2 22C1.46957 22 0.96086 21.8068 0.585787 21.463C0.210714 21.1192 0 20.6529 0 20.1667C0 19.6804 0.210714 19.2141 0.585787 18.8703C0.96086 18.5265 1.46957 18.3333 2 18.3333C2.53043 18.3333 3.03914 18.5265 3.41421 18.8703C3.78929 19.2141 4 19.6804 4 20.1667Z" fill="#191919" fill-opacity="0.78"/>
</svg>
