<svg width="15" height="15" viewBox="0 0 15 15" fill="none" xmlns="http://www.w3.org/2000/svg">
<path id="Vector" d="M1.64149 13.3562H2.79054L9.86948 6.26712L8.72043 5.11644L1.64149 12.2055V13.3562ZM13.3782 5.07534L9.89 1.62329L11.039 0.472603C11.3537 0.157534 11.7402 0 12.1988 0C12.6573 0 13.0436 0.157534 13.3577 0.472603L14.5067 1.62329C14.8213 1.93836 14.9855 2.31863 14.9991 2.76411C15.0128 3.20959 14.8624 3.58959 14.5477 3.90411L13.3782 5.07534ZM12.1881 6.28767L3.48817 15H0V11.5068L8.69991 2.79452L12.1881 6.28767ZM9.29496 5.69178L8.72043 5.11644L9.86948 6.26712L9.29496 5.69178Z" fill="#191919" fill-opacity="0.78"/>
</svg>
