<svg width="19" height="13" viewBox="0 0 19 13" fill="none" xmlns="http://www.w3.org/2000/svg">
<path d="M6.33333 12.0714C6.33333 11.8252 6.41674 11.589 6.56521 11.4148C6.71367 11.2407 6.91504 11.1429 7.125 11.1429H11.875C12.085 11.1429 12.2863 11.2407 12.4348 11.4148C12.5833 11.589 12.6667 11.8252 12.6667 12.0714C12.6667 12.3177 12.5833 12.5539 12.4348 12.728C12.2863 12.9022 12.085 13 11.875 13H7.125C6.91504 13 6.71367 12.9022 6.56521 12.728C6.41674 12.5539 6.33333 12.3177 6.33333 12.0714ZM3.16667 6.5C3.16667 6.25373 3.25007 6.01754 3.39854 5.8434C3.54701 5.66926 3.74837 5.57143 3.95833 5.57143H15.0417C15.2516 5.57143 15.453 5.66926 15.6015 5.8434C15.7499 6.01754 15.8333 6.25373 15.8333 6.5C15.8333 6.74627 15.7499 6.98246 15.6015 7.1566C15.453 7.33074 15.2516 7.42857 15.0417 7.42857H3.95833C3.74837 7.42857 3.54701 7.33074 3.39854 7.1566C3.25007 6.98246 3.16667 6.74627 3.16667 6.5ZM0 0.928571C0 0.682299 0.0834077 0.446113 0.231874 0.271972C0.38034 0.0978315 0.581704 0 0.791667 0H18.2083C18.4183 0 18.6197 0.0978315 18.7681 0.271972C18.9166 0.446113 19 0.682299 19 0.928571C19 1.17484 18.9166 1.41103 18.7681 1.58517C18.6197 1.75931 18.4183 1.85714 18.2083 1.85714H0.791667C0.581704 1.85714 0.38034 1.75931 0.231874 1.58517C0.0834077 1.41103 0 1.17484 0 0.928571Z" fill="black"/>
</svg>
