<svg width="16" height="28" viewBox="0 0 16 28" fill="none" xmlns="http://www.w3.org/2000/svg">
<path id="Vector" d="M0.611837 0.611839C0.220078 1.00372 -9.53674e-07 1.53515 -9.53674e-07 2.08926C-9.53674e-07 2.64338 0.220078 3.17481 0.611837 3.56669L10.9559 13.9107L0.611837 24.2548C0.23118 24.6489 0.0205488 25.1768 0.0253105 25.7247C0.0300722 26.2726 0.249845 26.7968 0.637294 27.1842C1.02474 27.5716 1.54887 27.7914 2.09678 27.7962C2.6447 27.8009 3.17256 27.5903 3.56668 27.2097L15.3882 15.3882C15.7799 14.9963 16 14.4649 16 13.9107C16 13.3566 15.7799 12.8252 15.3882 12.4333L3.56668 0.611839C3.1748 0.220079 2.64338 0 2.08926 0C1.53514 0 1.00372 0.220079 0.611837 0.611839Z" fill="black"/>
</svg>
