<svg width="23" height="24" viewBox="0 0 23 24" fill="none" xmlns="http://www.w3.org/2000/svg">
<path d="M20.054 17.4474C20.5966 16.4587 20.8865 15.3512 20.8978 14.2234C20.9092 13.0956 20.6416 11.9825 20.1188 10.9831C19.5961 9.98365 18.8345 9.12892 17.9017 8.49491C16.9689 7.8609 15.8939 7.46726 14.7723 7.34901C14.4163 6.49145 13.8895 5.7153 13.2239 5.06781C12.5584 4.42032 11.7681 3.91503 10.9011 3.58271C10.0341 3.25039 9.10849 3.09798 8.1807 3.13477C7.2529 3.17155 6.3423 3.39676 5.50431 3.79668C4.66633 4.1966 3.91849 4.76287 3.30632 5.46102C2.69416 6.15916 2.23047 6.97458 1.94348 7.85764C1.65649 8.7407 1.55221 9.67293 1.63698 10.5976C1.72175 11.5222 1.9938 12.4199 2.43657 13.2361L1.87506 15.2102C1.82444 15.3902 1.82269 15.5804 1.86998 15.7614C1.91727 15.9423 2.0119 16.1074 2.14413 16.2396C2.27636 16.3718 2.44142 16.4664 2.62235 16.5137C2.80327 16.561 2.99353 16.5593 3.17355 16.5087L5.14761 15.9471C5.94189 16.3854 6.81603 16.6599 7.71828 16.7543C8.08377 17.6461 8.6335 18.4506 9.33148 19.1152C10.0295 19.7798 10.86 20.2895 11.7686 20.6109C12.6772 20.9322 13.6435 21.0581 14.6041 20.9801C15.5647 20.9021 16.498 20.6222 17.3429 20.1585L19.317 20.72C19.4973 20.7737 19.6888 20.7776 19.8711 20.7314C20.0535 20.6852 20.22 20.5906 20.353 20.4576C20.4861 20.3245 20.5807 20.158 20.6269 19.9757C20.6731 19.7933 20.6691 19.6018 20.6155 19.4215L20.054 17.4474ZM5.2178 14.8504C5.16688 14.8499 5.11631 14.8589 5.06865 14.8768L2.88402 15.4997L3.50695 13.3151C3.52884 13.2467 3.53548 13.1743 3.52638 13.103C3.51729 13.0318 3.49269 12.9634 3.4543 12.9027C2.73636 11.6911 2.48533 10.2591 2.74835 8.87551C3.01136 7.49194 3.77033 6.25194 4.88277 5.38827C5.99522 4.52461 7.38465 4.09668 8.79024 4.18481C10.1958 4.27294 11.5209 4.87107 12.5168 5.86693C13.5126 6.86278 14.1108 8.18788 14.1989 9.59347C14.287 10.9991 13.8591 12.3885 12.9954 13.5009C12.1318 14.6134 10.8918 15.3724 9.5082 15.6354C8.12462 15.8984 6.69262 15.6474 5.48101 14.9294C5.40278 14.8781 5.31133 14.8507 5.2178 14.8504ZM18.9836 17.5264L19.6065 19.711L17.4219 19.0881C17.3535 19.0662 17.2811 19.0596 17.2099 19.0687C17.1386 19.0778 17.0702 19.1024 17.0095 19.1407C16.3268 19.5445 15.5685 19.8039 14.7815 19.9029C13.9945 20.002 13.1956 19.9385 12.4341 19.7165C11.6726 19.4944 10.9648 19.1186 10.3544 18.6121C9.74395 18.1056 9.2439 17.4793 8.88516 16.7719C10.6177 16.6563 12.2418 15.8872 13.4291 14.6201C14.6164 13.353 15.2783 11.6824 15.2811 9.946C15.2791 9.44719 15.2232 8.95006 15.1144 8.46326C16.0303 8.63529 16.8912 9.02549 17.6243 9.60082C18.3574 10.1761 18.941 10.9197 19.3258 11.7684C19.7106 12.6171 19.8851 13.5461 19.8347 14.4766C19.7843 15.4072 19.5104 16.3118 19.0362 17.114C18.9978 17.1747 18.9732 17.2431 18.9641 17.3144C18.955 17.3856 18.9617 17.458 18.9836 17.5264Z" fill="#0D0D0D" fill-opacity="0.75"/>
</svg>
