<svg width="26" height="27" viewBox="0 0 26 27" fill="none" xmlns="http://www.w3.org/2000/svg">
<path d="M13.0316 24.2878C13.6922 24.2886 14.3366 24.0836 14.8753 23.7013C15.414 23.319 15.8202 22.7783 16.0374 22.1545H10.0257C10.243 22.7783 10.6492 23.319 11.1879 23.7013C11.7266 24.0836 12.371 24.2886 13.0316 24.2878V24.2878ZM20.4982 16.3796V11.4879C20.4982 8.05642 18.1675 5.16578 15.0102 4.29645C14.6977 3.50925 13.934 2.95459 13.0316 2.95459C12.1292 2.95459 11.3655 3.50925 11.0529 4.29645C7.89561 5.16684 5.56496 8.05642 5.56496 11.4879V16.3796L3.74417 18.2004C3.64493 18.2992 3.56622 18.4168 3.51258 18.5462C3.45895 18.6756 3.43144 18.8144 3.43164 18.9545V20.0211C3.43164 20.304 3.54402 20.5754 3.74406 20.7754C3.9441 20.9754 4.21541 21.0878 4.4983 21.0878H21.5649C21.8478 21.0878 22.1191 20.9754 22.3191 20.7754C22.5191 20.5754 22.6315 20.304 22.6315 20.0211V18.9545C22.6317 18.8144 22.6042 18.6756 22.5506 18.5462C22.4969 18.4168 22.4182 18.2992 22.319 18.2004L20.4982 16.3796Z" fill="#0D0D0D" fill-opacity="0.75"/>
<circle cx="19.0706" cy="6.03079" r="2.80496" fill="#F9A135"/>
</svg>
