<svg width="20" height="23" viewBox="0 0 20 23" fill="none" xmlns="http://www.w3.org/2000/svg">
<path d="M10.0316 22.2878C10.6922 22.2886 11.3366 22.0836 11.8753 21.7013C12.414 21.319 12.8202 20.7783 13.0374 20.1545H7.02573C7.24297 20.7783 7.64917 21.319 8.18787 21.7013C8.72657 22.0836 9.371 22.2886 10.0316 22.2878ZM17.4982 14.3796V9.48787C17.4982 6.05642 15.1675 3.16578 12.0102 2.29645C11.6977 1.50925 10.934 0.95459 10.0316 0.95459C9.12919 0.95459 8.36546 1.50925 8.05293 2.29645C4.89561 3.16684 2.56496 6.05642 2.56496 9.48787V14.3796L0.744173 16.2004C0.644928 16.2992 0.566222 16.4168 0.512585 16.5462C0.458947 16.6756 0.431439 16.8144 0.431642 16.9545V18.0211C0.431642 18.304 0.544022 18.5754 0.744059 18.7754C0.944097 18.9754 1.21541 19.0878 1.4983 19.0878H18.5649C18.8478 19.0878 19.1191 18.9754 19.3191 18.7754C19.5191 18.5754 19.6315 18.304 19.6315 18.0211V16.9545C19.6317 16.8144 19.6042 16.6756 19.5506 16.5462C19.4969 16.4168 19.4182 16.2992 19.319 16.2004L17.4982 14.3796Z" fill="#0D0D0D" fill-opacity="0.75"/>
</svg>
